<?xml version="1.0" encoding="UTF-8"?>
<svg xmlns="http://www.w3.org/2000/svg" version="1.1" viewBox="0 0 1920 1080">
  <defs>
    <style>
      .cls-1 {
        fill: #1450ef;
      }

      .cls-2 {
        fill: #0e004b;
      }
    </style>
  </defs>
  <!-- Generator: Adobe Illustrator 28.7.1, SVG Export Plug-In . SVG Version: 1.2.0 Build 142)  -->
  <g>
    <g id="Camada_1">
      <g>
        <path class="cls-1" d="M568.3,403.4h86.9v-173.7h-173.7v87.2c0,44.6-33.6,81.3-76.9,86.3h-96.9v87.2c0,48-38.9,86.9-86.9,86.9h-86.9v173.7h173.7v-87.2c0-48,38.9-86.9,86.9-86.9s86.9,38.9,86.9,86.9v87.2h173.7v-173.7h-86.9c-48,0-86.9-38.9-86.9-86.9h0s0,0,0,0h0c0-48,38.9-86.9,86.9-86.9Z"/>
        <g>
          <g>
            <path class="cls-2" d="M750,750.9v-235.3h78.1c17.3,0,33.3,2.5,48.1,7.6,14.7,5.1,27.3,12.6,37.9,22.5,10.5,9.9,18.7,22.2,24.7,36.9,5.9,14.7,8.9,31.6,8.9,50.7s-3,35.9-8.9,50.7c-5.9,14.7-14.2,27-24.7,36.9-10.5,9.9-23.1,17.4-37.9,22.5-14.7,5.1-30.7,7.6-48.1,7.6h-78.1ZM791.6,715.3h35c11.1,0,21.5-1.6,31.2-4.8,9.6-3.2,18.1-8.1,25.2-14.7,7.2-6.6,12.7-15,16.7-25.4,4-10.4,5.9-22.8,5.9-37.1s-2-26.7-5.9-36.9c-4-10.3-9.5-18.7-16.7-25.4-7.2-6.7-15.6-11.6-25.2-14.7-9.6-3.1-20-4.6-31.2-4.6h-35v163.7Z"/>
            <path class="cls-2" d="M1064.1,761.7c2,3,4.6,6.4,8,10.2,3.3,3.8,7.5,7.4,12.6,10.6,5.1,3.2,10.9,5.9,17.6,8.2,6.7,2.2,14.3,3.3,23,3.3s15-.7,22.8-2.2c7.8-1.5,14.8-4.3,21-8.4,6.2-4.1,11.3-9.8,15.2-17.3,4-7.4,5.9-16.9,5.9-28.6v-34.5c-2.7,7.2-6.4,13.4-10.9,18.7-4.6,5.3-9.6,9.7-15.2,13.2-5.6,3.5-11.5,6-17.8,7.6-6.3,1.6-12.6,2.4-18.7,2.4-13.4,0-25.6-2.2-36.7-6.7-11.1-4.5-20.7-10.6-28.6-18.4-7.9-7.8-14-17.1-18.4-27.8-4.3-10.8-6.5-22.3-6.5-34.7s2.2-24,6.5-34.9c4.3-10.9,10.4-20.3,18.2-28.4,7.8-8,17.1-14.4,28-19.1,10.9-4.7,22.8-7.1,35.6-7.1s13,.7,18.9,2c5.9,1.4,11.6,3.8,16.9,7.2,5.3,3.5,10.3,8,15,13.5,4.7,5.6,9.3,12.6,13.7,21v-39.7h39.3v166.6c0,17.3-3,31.9-8.9,43.6-5.9,11.7-13.8,21.2-23.6,28.4-9.8,7.2-20.9,12.2-33.4,15.2-12.5,3-25.4,4.5-38.8,4.5s-20.9-1.2-30.1-3.5c-9.2-2.4-17.4-5.5-24.9-9.5-7.4-4-13.8-8.5-19.1-13.5-5.3-5.1-9.6-10.6-12.8-16.5l26-25.6ZM1155.1,707.3c6.7-2.1,12.7-5.1,18-8.9,5.3-3.8,9.5-8.5,12.6-13.9,3.1-5.4,4.6-11.6,4.6-18.6v-18.2c0-6.9-1.5-13.2-4.6-18.7-3.1-5.6-7.2-10.3-12.4-14.1-5.2-3.8-11.2-6.9-18-9.1-6.8-2.2-14-3.3-21.7-3.3s-15.3,1.3-22.3,3.9c-6.9,2.6-12.9,6.3-18,10.9-5.1,4.7-9,10.4-11.7,17.1-2.7,6.7-4.1,14-4.1,21.9s1.4,16,4.3,22.6c2.8,6.7,6.8,12.4,11.9,17.1,5.1,4.7,11.1,8.3,18,10.8,6.9,2.5,14.3,3.7,22.3,3.7s14.5-1.1,21.2-3.2Z"/>
            <path class="cls-2" d="M1287.9,571.6c5.9,0,10.6,1.7,13.9,5.2,3.3,3.5,5,7.9,5,13.4v160.7h-39v-179.3h20ZM1305.7,544.2h-37.9v-37.9h37.9v37.9Z"/>
            <path class="cls-2" d="M1655.3,750.9c-10.1,0-17.4-2.5-21.9-7.6-4.5-5.1-6.7-11.4-6.7-19.1v-16.3c-2,7.9-5.2,14.8-9.7,20.6-4.5,5.8-9.8,10.6-16,14.5-6.2,3.8-12.9,6.7-20,8.7-7.2,2-14.5,3-21.9,3s-16.3-1-24.3-3c-8-2-15.2-5.1-21.5-9.5-6.3-4.3-11.4-9.8-15.2-16.3-3.8-6.6-5.8-14.5-5.8-23.9s2-17.4,6.1-23.9c4.1-6.6,9.3-12,15.8-16.3,6.4-4.3,13.7-7.8,21.9-10.4,8.2-2.6,16.3-4.5,24.5-5.8l66.1-9.3v-10.4c0-5.4-1.4-9.8-4.3-13.2-2.8-3.3-6.4-5.9-10.8-7.8-4.3-1.9-9-3.2-14.1-3.9-5.1-.7-9.8-1.1-14.3-1.1-11.6,0-21.5,2.2-29.5,6.5-8,4.3-12.7,13.1-13.9,26.2l-36.4-3.3c0-10.9,2.3-20.2,6.9-27.8,4.6-7.7,10.6-14,18-18.9,7.4-4.9,15.9-8.6,25.4-10.9,9.5-2.3,19.4-3.5,29.5-3.5s21.3,1.1,31.2,3.2c9.9,2.1,18.6,5.5,26,10.2,7.4,4.7,13.3,10.7,17.6,18,4.3,7.3,6.5,16,6.5,26.2v93.2h16v32.3h-25.2ZM1566.6,671.1c-4,.7-8,1.9-12.2,3.3-4.2,1.5-8,3.3-11.3,5.6-3.3,2.2-6,5-8,8.3-2,3.3-3,7.1-3,11.3.2,4.2,1.5,7.7,3.7,10.6,2.2,2.8,5.1,5.1,8.5,6.9,3.5,1.7,7.2,2.8,11.3,3.3,4.1.5,8.1.6,12.1.4,6.9-.2,13.9-1.3,20.8-3.2,6.9-1.9,13.2-4.6,18.9-8.4,5.7-3.7,10.3-8.5,13.9-14.3,3.6-5.8,5.4-12.7,5.4-20.6v-13l-60.1,9.7Z"/>
            <path class="cls-2" d="M1754,500v219h31.2v34.9h-24.1c-13.4-.3-24.4-3.9-33-10.9-8.7-7.1-13-18.1-13-33.2v-209.7h39Z"/>
            <g>
              <path class="cls-2" d="M750,464.6v-235.3h102.4c12.1,0,23.8,1.4,34.9,4.1,11.1,2.7,21,7.1,29.7,13,8.7,5.9,15.6,13.9,21,23.9,5.3,10,8,22.3,8,36.9s-2.6,27.5-7.8,37.9c-5.2,10.4-12.1,18.7-20.6,25.1-8.5,6.3-18.4,10.9-29.5,13.9-11.1,3-22.6,4.5-34.5,4.5h-62v76.1h-41.6ZM791.6,355.1h59.8c6.7,0,13.2-.7,19.5-2,6.3-1.4,11.9-3.9,16.9-7.6,4.9-3.7,8.9-8.6,11.9-14.7,3-6.1,4.5-13.7,4.5-22.8s-1.5-16.9-4.6-22.6c-3.1-5.7-7.2-10-12.4-13-5.2-3-10.9-4.9-17.1-5.8-6.2-.9-12.4-1.3-18.6-1.3h-59.8v89.8Z"/>
              <path class="cls-2" d="M965.6,375.1c0-12.9,2.2-25,6.7-36.4,4.5-11.4,10.9-21.3,19.3-29.7,8.4-8.4,18.5-15.2,30.2-20.2,11.8-5.1,24.8-7.6,39.2-7.6s27.7,2.5,39.3,7.6c11.6,5.1,21.6,11.9,29.9,20.4,8.3,8.5,14.7,18.5,19.1,29.9,4.5,11.4,6.7,23.5,6.7,36.4s-2.4,25.7-7.2,37.1c-4.8,11.4-11.5,21.2-20,29.5-8.5,8.3-18.6,14.7-30.1,19.3-11.5,4.6-24.1,6.9-37.7,6.9s-26.2-2.3-37.9-6.9c-11.6-4.6-21.7-11-30.2-19.3-8.5-8.3-15.2-18.1-20-29.5-4.8-11.4-7.2-23.9-7.2-37.5ZM1061,432.3c8.4,0,16.1-1.5,23-4.5,6.9-3,12.8-7,17.6-12.1,4.8-5.1,8.5-11.1,11.1-18.2,2.6-7.1,3.9-14.7,3.9-22.8s-1.3-15.4-3.9-22.5c-2.6-7.1-6.3-13.1-11.1-18.2-4.8-5.1-10.7-9.1-17.6-12.1-6.9-3-14.6-4.5-23-4.5s-16.1,1.5-23,4.5c-6.9,3-12.8,7-17.6,12.1-4.8,5.1-8.6,11.1-11.3,18.2-2.7,7.1-4.1,14.5-4.1,22.5s1.4,15.7,4.1,22.6c2.7,6.9,6.5,13,11.3,18.2,4.8,5.2,10.7,9.3,17.6,12.2,6.9,3,14.6,4.5,23,4.5Z"/>
              <path class="cls-2" d="M1205.8,284.6c7.9,0,14.2,2.4,18.9,7.1,4.7,4.7,7.1,11,7.1,18.9v2.6c5.7-8.2,12.6-15.2,20.8-21.2,8.2-5.9,16.5-8.9,24.9-8.9h28.3v36h-31.6c-6.9,0-13,1.2-18.2,3.7-5.2,2.5-9.5,6-12.8,10.6-3.3,4.6-5.9,10.3-7.6,17.1-1.7,6.8-2.6,14.4-2.6,22.8v91.3h-39v-144.7h-16v-35.3h27.8Z"/>
              <path class="cls-2" d="M1487.8,375.1c0-12.9,2.2-25,6.7-36.4,4.5-11.4,10.9-21.3,19.3-29.7,8.4-8.4,18.5-15.2,30.2-20.2,11.8-5.1,24.8-7.6,39.2-7.6s27.7,2.5,39.3,7.6c11.6,5.1,21.6,11.9,29.9,20.4,8.3,8.5,14.7,18.5,19.1,29.9,4.5,11.4,6.7,23.5,6.7,36.4s-2.4,25.7-7.2,37.1c-4.8,11.4-11.5,21.2-20,29.5-8.5,8.3-18.6,14.7-30.1,19.3-11.5,4.6-24.1,6.9-37.7,6.9s-26.2-2.3-37.9-6.9c-11.6-4.6-21.7-11-30.2-19.3-8.5-8.3-15.2-18.1-20-29.5-4.8-11.4-7.2-23.9-7.2-37.5ZM1583.2,432.3c8.4,0,16.1-1.5,23-4.5,6.9-3,12.8-7,17.6-12.1,4.8-5.1,8.5-11.1,11.1-18.2,2.6-7.1,3.9-14.7,3.9-22.8s-1.3-15.4-3.9-22.5c-2.6-7.1-6.3-13.1-11.1-18.2-4.8-5.1-10.7-9.1-17.6-12.1-6.9-3-14.6-4.5-23-4.5s-16.1,1.5-23,4.5c-6.9,3-12.8,7-17.6,12.1-4.8,5.1-8.6,11.1-11.3,18.2-2.7,7.1-4.1,14.5-4.1,22.5s1.4,15.7,4.1,22.6c2.7,6.9,6.5,13,11.3,18.2,4.8,5.2,10.7,9.3,17.6,12.2,6.9,3,14.6,4.5,23,4.5Z"/>
            </g>
            <path class="cls-2" d="M992,571.6c5.9,0,10.6,1.7,13.9,5.2,3.3,3.5,5,7.9,5,13.4v160.7h-39v-179.3h20Z"/>
            <rect class="cls-2" x="972" y="506.3" width="37.9" height="37.9"/>
            <path class="cls-2" d="M1335.7,569.4c8.9,0,16.7-2.1,23.4-6.3,6.7-4.2,10.9-11.1,12.6-20.8l6.7-26.7h31.5l-11.1,55.3h64.2v33.4h-57.9v116.5h65v33.8l-59,.4c-13.1-.2-24-4.1-32.7-11.5-8.7-7.4-13-18.8-13-34.1v-105h-35.6v-34.9h5.9Z"/>
          </g>
          <path class="cls-2" d="M1335.7,283.1c8.9,0,16.7-2.1,23.4-6.3,6.7-4.2,10.9-11.1,12.6-20.8l6.7-26.7h31.5l-11.1,55.3h64.2v33.4h-57.9v116.5h65v33.8l-59,.4c-13.1-.2-24-4.1-32.7-11.5-8.7-7.4-13-18.8-13-34.1v-105h-35.6v-34.9h5.9Z"/>
        </g>
      </g>
    </g>
  </g>
</svg>
